{
  "accessors": [
    {
      "bufferView": 1,
      "componentType": 5126,
      "count": 65532,
      "max": [
        22.32139778137207,
        25.048837661743164,
        32.57170486450195
      ],
      "min": [
        -23.657184600830078,
        -9.955137252807617,
        -32.57151794433594
      ],
      "type": "VEC3"
    },
    {
      "bufferView": 1,
      "byteOffset": 786384,
      "componentType": 5126,
      "count": 65532,
      "max": [
        0.9999997615814209,
        0.9999387860298157,
        0.999994158744812
      ],
      "min": [
        -0.9999562501907349,
        -0.9999879002571106,
        -0.9999977350234985
      ],
      "type": "VEC3"
    },
    {
      "bufferView": 2,
      "componentType": 5126,
      "count": 65532,
      "max": [
        0.8313725590705872,
        0.658823549747467,
        0.6666666865348816,
        1.0
      ],
      "min": [
        0.0,
        0.0313725508749485,
        0.0,
        1.0
      ],
      "type": "VEC4"
    },
    {
      "bufferView": 0,
      "componentType": 5125,
      "count": 343053,
      "type": "SCALAR"
    },
    {
      "bufferView": 1,
      "byteOffset": 1572768,
      "componentType": 5126,
      "count": 65532,
      "max": [
        22.85914421081543,
        39.9998779296875,
        28.85495376586914
      ],
      "min": [
        -23.386516571044922,
        -11.281131744384766,
        -23.458147048950195
      ],
      "type": "VEC3"
    },
    {
      "bufferView": 1,
      "byteOffset": 2359152,
      "componentType": 5126,
      "count": 65532,
      "max": [
        0.9999904036521912,
        1.0,
        0.9999904632568359
      ],
      "min": [
        -0.9999606013298035,
        -0.9999891519546509,
        -0.999976634979248
      ],
      "type": "VEC3"
    },
    {
      "bufferView": 2,
      "byteOffset": 1048512,
      "componentType": 5126,
      "count": 65532,
      "max": [
        0.9686274528503418,
        0.9647058844566345,
        0.9921568632125854,
        1.0
      ],
      "min": [
        0.003921568859368563,
        0.0235294122248888,
        0.0,
        1.0
      ],
      "type": "VEC4"
    },
    {
      "bufferView": 0,
      "byteOffset": 1372212,
      "componentType": 5125,
      "count": 342276,
      "type": "SCALAR"
    },
    {
      "bufferView": 1,
      "byteOffset": 3145536,
      "componentType": 5126,
      "count": 65532,
      "max": [
        23.14727783203125,
        39.996185302734375,
        17.053260803222656
      ],
      "min": [
        -22.22304916381836,
        -40.00032424926758,
        -19.794809341430664
      ],
      "type": "VEC3"
    },
    {
      "bufferView": 1,
      "byteOffset": 3931920,
      "componentType": 5126,
      "count": 65532,
      "max": [
        0.9999829530715942,
        1.0,
        0.9999976754188538
      ],
      "min": [
        -0.9999661445617676,
        -0.9999960660934448,
        -0.9999706745147705
      ],
      "type": "VEC3"
    },
    {
      "bufferView": 2,
      "byteOffset": 2097024,
      "componentType": 5126,
      "count": 65532,
      "max": [
        0.729411780834198,
        0.6941176652908325,
        0.729411780834198,
        1.0
      ],
      "min": [
        0.0,
        0.003921568859368563,
        0.0,
        1.0
      ],
      "type": "VEC4"
    },
    {
      "bufferView": 0,
      "byteOffset": 2741316,
      "componentType": 5125,
      "count": 326793,
      "type": "SCALAR"
    },
    {
      "bufferView": 1,
      "byteOffset": 4718304,
      "componentType": 5126,
      "count": 65532,
      "max": [
        23.657276153564453,
        39.99769592285156,
        11.749329566955566
      ],
      "min": [
        -23.655757904052734,
        -39.982234954833984,
        -21.4256591796875
      ],
      "type": "VEC3"
    },
    {
      "bufferView": 1,
      "byteOffset": 5504688,
      "componentType": 5126,
      "count": 65532,
      "max": [
        0.9999997615814209,
        1.0,
        0.9999906420707703
      ],
      "min": [
        -0.999954342842102,
        -0.9999964833259583,
        -0.9997830986976624
      ],
      "type": "VEC3"
    },
    {
      "bufferView": 2,
      "byteOffset": 3145536,
      "componentType": 5126,
      "count": 65532,
      "max": [
        1.0,
        0.9882352948188782,
        1.0,
        1.0
      ],
      "min": [
        0.0,
        0.0,
        0.0,
        1.0
      ],
      "type": "VEC4"
    },
    {
      "bufferView": 0,
      "byteOffset": 4048488,
      "componentType": 5125,
      "count": 312597,
      "type": "SCALAR"
    },
    {
      "bufferView": 1,
      "byteOffset": 6291072,
      "componentType": 5126,
      "count": 48831,
      "max": [
        23.598451614379883,
        39.99795913696289,
        -0.39527592062950134
      ],
      "min": [
        -23.53565216064453,
        -39.99313735961914,
        -32.57151794433594
      ],
      "type": "VEC3"
    },
    {
      "bufferView": 1,
      "byteOffset": 6877044,
      "componentType": 5126,
      "count": 48831,
      "max": [
        0.9999344944953918,
        1.0,
        0.9997472167015076
      ],
      "min": [
        -0.9999403953552246,
        -0.9999999403953552,
        -0.999998152256012
      ],
      "type": "VEC3"
    },
    {
      "bufferView": 2,
      "byteOffset": 4194048,
      "componentType": 5126,
      "count": 48831,
      "max": [
        1.0,
        0.8823529481887817,
        0.929411768913269,
        1.0
      ],
      "min": [
        0.003921568859368563,
        0.0,
        0.0,
        1.0
      ],
      "type": "VEC4"
    },
    {
      "bufferView": 0,
      "byteOffset": 5298876,
      "componentType": 5125,
      "count": 175257,
      "type": "SCALAR"
    }
  ],
  "asset": {
    "extras": {
      "author": "Oophtaco (https://sketchfab.com/Oophtaco)",
      "license": "CC-BY-4.0 (http://creativecommons.org/licenses/by/4.0/)",
      "source": "https://sketchfab.com/3d-models/dr-doom-busk-50458493f9504e65aebb356486a1be2b",
      "title": "Dr Doom busk"
    },
    "generator": "Sketchfab-16.68.0",
    "version": "2.0"
  },
  "bufferViews": [
    {
      "buffer": 0,
      "byteLength": 5999904,
      "name": "floatBufferViews",
      "target": 34963
    },
    {
      "buffer": 0,
      "byteLength": 7463016,
      "byteOffset": 5999904,
      "byteStride": 12,
      "name": "floatBufferViews",
      "target": 34962
    },
    {
      "buffer": 0,
      "byteLength": 4975344,
      "byteOffset": 13462920,
      "byteStride": 16,
      "name": "floatBufferViews",
      "target": 34962
    }
  ],
  "buffers": [
    {
      "byteLength": 18438264,
      "uri": "scene.bin"
    }
  ],
  "materials": [
    {
      "doubleSided": true,
      "name": "material_0",
      "pbrMetallicRoughness": {
        "metallicFactor": 0.0,
        "roughnessFactor": 0.6
      }
    }
  ],
  "meshes": [
    {
      "name": "Object_0",
      "primitives": [
        {
          "attributes": {
            "COLOR_0": 2,
            "NORMAL": 1,
            "POSITION": 0
          },
          "indices": 3,
          "material": 0,
          "mode": 4
        }
      ]
    },
    {
      "name": "Object_1",
      "primitives": [
        {
          "attributes": {
            "COLOR_0": 6,
            "NORMAL": 5,
            "POSITION": 4
          },
          "indices": 7,
          "material": 0,
          "mode": 4
        }
      ]
    },
    {
      "name": "Object_2",
      "primitives": [
        {
          "attributes": {
            "COLOR_0": 10,
            "NORMAL": 9,
            "POSITION": 8
          },
          "indices": 11,
          "material": 0,
          "mode": 4
        }
      ]
    },
    {
      "name": "Object_3",
      "primitives": [
        {
          "attributes": {
            "COLOR_0": 14,
            "NORMAL": 13,
            "POSITION": 12
          },
          "indices": 15,
          "material": 0,
          "mode": 4
        }
      ]
    },
    {
      "name": "Object_4",
      "primitives": [
        {
          "attributes": {
            "COLOR_0": 18,
            "NORMAL": 17,
            "POSITION": 16
          },
          "indices": 19,
          "material": 0,
          "mode": 4
        }
      ]
    }
  ],
  "nodes": [
    {
      "children": [
        1
      ],
      "matrix": [
        1.1102230246251565e-16,
        -5.551115123125783e-17,
        1.0,
        0.0,
        0.0,
        -1.0,
        0.0,
        0.0,
        1.0,
        -1.1102230246251562e-16,
        -1.665334536937735e-16,
        0.0,
        0.0,
        0.0,
        0.0,
        1.0
      ],
      "name": "Sketchfab_model"
    },
    {
      "children": [
        2,
        3,
        4,
        5,
        6
      ],
      "name": "dr doom.obj.cleaner.materialmerger.gles"
    },
    {
      "mesh": 0,
      "name": "Object_2"
    },
    {
      "mesh": 1,
      "name": "Object_3"
    },
    {
      "mesh": 2,
      "name": "Object_4"
    },
    {
      "mesh": 3,
      "name": "Object_5"
    },
    {
      "mesh": 4,
      "name": "Object_6"
    }
  ],
  "scene": 0,
  "scenes": [
    {
      "name": "Sketchfab_Scene",
      "nodes": [
        0
      ]
    }
  ]
}
